<svg version="1.1" xmlns="http://www.w3.org/2000/svg" xmlns:xlink="http://www.w3.org/1999/xlink" width="40.83611" height="39.98882" viewBox="0,0,40.83611,39.98882"><g transform="translate(-221.81889,-173.79576)"><g data-paper-data="{&quot;isPaintingLayer&quot;:true}" fill-rule="nonzero" stroke="none" stroke-width="0.5" stroke-linecap="butt" stroke-linejoin="miter" stroke-miterlimit="10" stroke-dasharray="" stroke-dashoffset="0" style="mix-blend-mode: normal"><path d="M237.78709,190.75426c-0.39293,0 -0.71528,-0.30217 -0.74737,-0.6868c-3.08972,-2.20418 -1.63959,-8.49278 -1.34811,-11.56639l0.40213,-0.75952c0.03194,-0.15615 0.09786,-0.26601 0.09786,-0.26601c3.79188,-6.31979 11.3648,-3.80406 13.73677,2.29514c0.83539,3.05993 0.90204,6.74675 -1.53158,9.17661c-2.47065,2.46684 -7.26702,3.40227 -10.35289,1.76185c-0.08011,0.02919 -0.1666,0.04512 -0.25681,0.04512zM237.56646,178.10282c-0.03611,0.14003 -0.09575,0.23544 -0.09575,0.23544l-0.28655,0.31205c-0.27079,2.59655 -0.48003,4.36308 -0.23693,7.00637c0.1127,1.22532 -0.04642,2.71014 1.16855,3.32147c2.46242,1.84003 7.00635,1.1273 9.22034,-1.09153c2.00827,-2.01267 1.85007,-5.1406 1.16684,-7.64879c-1.87733,-4.95051 -7.81796,-7.10507 -10.93651,-2.13502z" fill="#724cbf"/><path d="M240.4855,185.35743c-0.75,0 -0.75,-0.75 -0.75,-0.75v-0.07936c0,-1.19132 -0.0925,-2.36948 0.00259,-3.55435c0,0 0.06228,-0.74741 0.80969,-0.68512c0.74741,0.06229 0.68512,0.8097 0.68512,0.8097c-0.0989,1.13824 0.0026,2.28332 0.0026,3.42978v0.07936c0,0 0,0.75 -0.75,0.75z" fill="#724cbf"/><path d="M244.77121,184.88124c-0.75,0 -0.75,-0.75 -0.75,-0.75c0,-1.11111 0,-2.38095 0,-3.49206c0,0 0,-0.75 0.75,-0.75c0.75,0 0.75,0.75 0.75,0.75c0,1.11111 0,2.22222 0,3.33333v0.15873c0,0 0,0.75 -0.75,0.75z" fill="#724cbf"/><path d="M246.66912,189.24266c0.20604,-0.72115 0.92719,-0.5151 0.92719,-0.5151l0.65412,0.19451c6.82007,3.23677 2.27795,13.69222 -4.43643,13.17665c-2.08688,-0.2984 -4.33415,-0.23508 -6.18868,-1.38059c-3.77357,-2.33088 -3.01992,-8.17203 -0.20982,-11.0061c0,0 0.53033,-0.53033 1.06066,0c0.53033,0.53033 0,1.06066 0,1.06066c-0.9158,0.90645 -0.92219,1.64069 -1.32886,2.80831c-1.95425,5.61114 2.2789,6.37691 6.83512,7.02721c4.51021,0.41447 7.09752,-4.52208 5.34864,-8.22037c-0.40832,-0.86346 -0.7786,-1.73375 -1.68983,-2.09505l-0.45699,-0.12295c0,0 -0.72115,-0.20604 -0.51511,-0.92718z" fill="#724cbf"/><path d="M248.61645,212.30584c0,0.75 -0.75,0.75 -0.75,0.75h-0.79365c-2.80447,0 -5.88282,-0.51732 -8.62557,-1.14195c-3.35503,-1.22351 -7.98856,-7.00975 -3.90774,-10.19266c1.17827,-0.91901 3.30975,-1.42879 4.72102,-1.80673c0,0 0.72468,-0.19325 0.91792,0.53142c0.19324,0.72467 -0.53143,0.91793 -0.53143,0.91793c-1.23204,0.32704 -3.12216,0.75343 -4.16787,1.5266c-3.10167,2.29328 1.22117,6.79791 3.39384,7.58513c2.59349,0.60858 5.54102,1.08026 8.19983,1.08026h0.79365c0,0 0.75,0 0.75,0.75z" fill="#724cbf"/><path d="M250.17201,210.33957l-0.80236,0.17287c-4.1574,0.41574 -8.3478,-1.02097 -12.64024,-0.71247c0,0 -0.7481,0.05344 -0.80153,-0.69466c-0.05344,-0.7481 0.69466,-0.80152 0.69466,-0.80152c4.26933,-0.30316 8.48192,1.1277 12.59786,0.7161l0.44624,-0.10304c-0.06895,-0.3176 -0.14074,-0.63981 -0.21731,-0.96373c-0.19312,0.10272 -0.3924,0.10272 -0.3924,0.10272h-0.63492c-4.59771,-0.05661 -9.24846,-1.50794 -13.96825,-1.50794c0,0 -0.75,0 -0.75,-0.75c0,-0.75 0.75,-0.75 0.75,-0.75c3.19239,0 6.66016,0.12055 9.81054,0.64593c1.39528,0.23268 2.74217,0.88628 4.15771,0.86201h0.63492c0,0 0.00994,0 0.02753,0.00115c-0.10639,-0.36415 -0.22245,-0.72515 -0.35098,-1.07883c-0.12939,0.038 -0.2321,0.03801 -0.2321,0.03801l-0.82318,-0.00059c-2.44509,-0.19297 -4.15913,-1.3272 -6.47323,-1.84071c-2.0205,-0.44836 -4.24453,-0.27292 -6.27975,-0.06719c0,0 -0.74627,0.07463 -0.82091,-0.67165c-0.07463,-0.74628 0.67165,-0.82091 0.67165,-0.82091c2.18506,-0.21591 4.56329,-0.37291 6.73613,0.09153c2.23447,0.47761 3.89461,1.62609 6.22517,1.81009l0.3593,-0.00027c-0.4032,-0.76882 -0.89919,-1.46281 -1.52547,-2.02617l-0.28097,-0.15245c0,0 -0.64312,-0.38587 -0.25725,-1.02899c0.38587,-0.64312 1.02899,-0.25725 1.02899,-0.25725l0.51268,0.32375c2.09025,1.88213 3.18792,5.24889 3.57531,8.06653c1.03591,0.92738 7.08975,1.63993 5.95254,4.26728c-0.25169,0.5815 -1.84367,0.61 -2.40507,0.55731c-2.22493,-0.20882 -4.05429,-1.30458 -6.19686,-0.59039c0,0 -0.71151,0.23717 -0.94868,-0.47434c-0.23717,-0.71151 0.47434,-0.94868 0.47434,-0.94868c2.16306,-0.72102 3.91097,-0.02683 6.08667,0.37062c0.0734,0.01341 0.5196,0.03553 0.93111,0.09501c-0.03359,-0.02256 -0.0651,-0.04233 -0.09356,-0.05782c-0.53161,-0.28934 -1.13259,-0.42979 -1.68298,-0.68158c-1.06304,-0.48632 -1.93512,-0.6442 -2.80103,-1.2741c-0.14752,0.10175 -0.29431,0.13438 -0.29431,0.13438z" fill="#724cbf"/><path d="M236.61664,182.56189c-0.33541,0.67082 -1.00623,0.33541 -1.00623,0.33541l-0.12792,-0.06483c-1.98224,-0.88315 -4.5515,-2.60846 -5.97627,-4.24158c-1.08218,-1.24042 -1.58925,-2.58286 -3.27509,-3.08307c-0.37246,0.00369 -1.90369,-0.24552 -2.1926,-0.10368c-0.89867,0.44123 -1.00359,3.86883 -0.58593,4.68354c1.52051,2.966 4.43874,5.08667 6.87038,7.24836c0.36776,0.32693 0.70987,0.68313 1.03047,1.05889l0.0673,-0.08225l0.86816,0.71031c0.1707,0.13747 0.27992,0.3482 0.27992,0.58444c0,0.41422 -0.33578,0.75 -0.75,0.75c-0.05572,0 -0.11001,-0.00608 -0.16227,-0.01761l-0.77847,-0.15569l0.0122,-0.06101l-0.15213,0.01848c-0.26297,-0.17068 -0.52593,-0.34135 -0.78889,-0.51203c-0.74809,-0.33248 -1.58406,-1.18917 -2.45475,-1.02786c-0.50674,0.09388 -1.63746,0.41885 -1.01434,1.13019c2.13736,2.43994 6.53614,4.29219 9.44361,5.53538c0,0 0.68936,0.29544 0.39392,0.9848c-0.29544,0.68936 -0.9848,0.39392 -0.9848,0.39392c-2.80396,-1.2043 -8.32204,-3.37597 -10.0802,-6.05193c-1.25703,-1.91323 0.61309,-3.50544 2.44621,-3.524c-0.22297,-0.23155 -0.42983,-0.44165 -0.61473,-0.60601c-3.15571,-2.8052 -6.5576,-5.91371 -4.77207,-10.38708c0.24592,-0.61612 0.29309,-1.54958 0.9378,-1.9488c0.55021,-0.3407 2.53662,-0.10891 3.20423,-0.10368c3.75077,1.17901 5.8275,5.74842 9.63753,7.43725l0.18954,0.09391c0,0 0.67082,0.33541 0.33541,1.00623z" fill="#724cbf"/><path d="M262.6258,199.15441c-0.1819,0.72761 -0.90951,0.54571 -0.90951,0.54571l-0.60011,-0.1509c-3.31888,-0.66466 -6.67844,-2.13029 -10.01164,-2.12829c0,0 -0.75,0 -0.75,-0.75c0,-0.44605 0.26528,-0.62682 0.4803,-0.70008c0.16672,-0.10241 0.33541,-0.1235 0.33541,-0.1235l0.65332,-0.08143c1.97434,-0.1762 4.08093,-1.30601 5.46816,-2.69042c0.17694,-0.21473 0.39945,-0.39892 0.53083,-0.64419c1.95719,-3.65395 -3.84422,0.42288 -4.76979,-1.13926c-0.36719,-0.61972 0.59044,-1.74199 0.94384,-2.21398c1.59265,-2.12708 2.904,-4.52394 4.38738,-6.73701c0.14313,-0.32438 0.40416,-0.86655 0.47921,-1.22382c1.24014,-5.90367 -7.38184,-0.63345 -7.98746,1.94151c0,0 -0.19734,0.72357 -0.92091,0.52623c-0.72357,-0.19734 -0.52623,-0.92091 -0.52623,-0.92091c0.74686,-2.51064 6.32687,-6.74633 9.24149,-5.92642c2.66787,0.7505 1.817,4.56133 1.02803,6.32664c-1.36915,2.06371 -2.65092,4.16034 -3.99605,6.23692c-0.04366,0.06741 -0.18009,0.30638 -0.35536,0.56516c0.1432,-0.05621 0.27479,-0.10725 0.37386,-0.15064c0.71765,-0.31432 2.32591,-0.87817 3.07985,-0.34945c1.68962,1.18489 0.49936,3.57334 -0.39101,4.70961c-0.95336,0.955 -2.14504,1.77407 -3.43373,2.34857c2.15147,0.49213 4.30065,1.22769 6.43467,1.6539l0.66974,0.16656c0,0 0.72761,0.1819 0.54571,0.90951z" fill="#724cbf"/><path d="M233.83867,199.2106c0,0.75 -0.75,0.75 -0.75,0.75l-0.87209,-0.03849c-0.81247,-0.27082 -3.44232,-0.60622 -3.52696,-1.69215c-0.04089,-0.52455 0.62465,-0.86246 1.0351,-1.19164c1.43146,-1.14802 4.30561,-1.64706 6.02192,-2.33361c0,0 0.69636,-0.27854 0.9749,0.41781c0.27854,0.69636 -0.41781,0.9749 -0.41781,0.9749c-1.39313,0.55723 -3.55992,1.94809 -5.23262,2.22379c0.51801,0.00004 1.19838,0.03738 1.61982,0.17786l0.39775,-0.03849c0,0 0.75,0 0.75,0.75z" fill="#724cbf"/><path d="M227.8795,205.07076c-0.3046,-0.68536 0.38075,-0.98996 0.38075,-0.98996l0.66276,-0.29216c2.38849,-1.5411 5.06474,-3.42211 7.04802,-5.42583c0,0 0.53033,-0.53033 1.06066,0c0.53033,0.53033 0,1.06066 0,1.06066c-2.11447,2.09659 -4.87526,4.06987 -7.39642,5.68528l-0.76581,0.34276c0,0 -0.68536,0.3046 -0.98996,-0.38075z" fill="#724cbf"/><path d="M256.842,204.62075c-0.72761,0.1819 -0.90951,-0.54571 -0.90951,-0.54571l0.11791,0.03097c-1.52178,-1.52776 -4.24613,-4.0995 -6.43672,-4.22737c0,0 -0.74741,-0.06228 -0.68513,-0.80969c0.06228,-0.74741 0.80969,-0.68513 0.80969,-0.68513c2.64933,0.2671 5.51472,2.8099 7.37281,4.66152l0.27664,0.66589c0,0 0.1819,0.72761 -0.54571,0.90951z" fill="#724cbf"/></g></g></svg>